<svg width="70" height="82" viewBox="0 0 70 82" fill="none" xmlns="http://www.w3.org/2000/svg">
<path d="M69 23.29C68.91 17.09 68.72 10.91 68.31 4.73C68.22 3.22 67.23 1.39 65.56 1.11C55.42 -0.569997 44.87 0.330003 34.56 0.420003C24.5 0.520003 13.73 -0.409997 3.82002 1.33L7.47002 2.33L7.31002 2.18C4.77002 -0.159996 1.24002 1.64 0.910021 4.83C-0.179979 15.36 0.990021 26.44 0.910021 37.06C0.910021 50.15 0.670022 63.23 1.54002 76.31C1.63002 77.82 2.62002 79.65 4.29002 79.93C14.08 81.54 24.34 80.93 34.29 81.08C44.49 81.27 55 82.08 65.17 80.98C66.1725 80.9649 67.1305 80.5634 67.8441 79.8591C68.5577 79.1548 68.9718 78.2022 69 77.2C69.94 68.1 68.92 58.77 68.94 49.61L69 23.29C69 18.46 61.51 18.46 61.5 23.29L61.42 49.61C61.42 58.77 62.42 68.1 61.48 77.2L65.23 73.45C55.38 74.51 45.23 73.76 35.33 73.57C25.85 73.39 15.68 74.2 6.33002 72.66L9.09002 76.28C8.22002 63.2 8.42002 50.12 8.46002 37.03C8.46002 26.41 7.33002 15.33 8.46002 4.8L2.06002 7.45C4.56002 9.76 8.06002 7.95 11.06 7.9C13.12 7.9 15.19 8.08 17.25 8.08C22.25 8.08 27.19 7.99 32.15 7.95C42.4 7.85 53.47 6.67 63.59 8.34L60.83 4.73C61.24 10.91 61.43 17.09 61.52 23.29C61.61 28.11 69.11 28.12 69 23.29Z" fill="white"/>
<path d="M22.5 75.74V5.14999C22.5 0.319994 15 0.309994 15 5.14999V75.74C15 80.56 22.5 80.57 22.5 75.74Z" fill="white"/>
<path d="M19.45 44.47H51.0501C55.8701 44.47 55.8801 36.97 51.0501 36.97H19.45C14.63 36.97 14.62 44.47 19.45 44.47Z" fill="white"/>
<path d="M5.65998 23.12H18.25C23.08 23.12 23.08 15.62 18.25 15.62H5.65998C0.829976 15.62 0.829976 23.12 5.65998 23.12Z" fill="white"/>
<path d="M5.65998 65.87H18.25C23.08 65.87 23.08 58.37 18.25 58.37H5.65998C0.829976 58.37 0.829976 65.87 5.65998 65.87Z" fill="white"/>
<path d="M5.65998 50.87H18.25C23.08 50.87 23.08 43.37 18.25 43.37H5.65998C0.829976 43.37 0.829976 50.87 5.65998 50.87Z" fill="white"/>
<path d="M5.65998 37H18.25C23.08 37 23.08 29.5 18.25 29.5H5.65998C0.829976 29.5 0.829976 37 5.65998 37Z" fill="white"/>
<path d="M52 23.12H64.61C69.44 23.12 69.45 15.62 64.61 15.62H52C47.18 15.62 47.17 23.12 52 23.12Z" fill="white"/>
<path d="M52 65.87H64.61C69.44 65.87 69.45 58.37 64.61 58.37H52C47.18 58.37 47.17 65.87 52 65.87Z" fill="white"/>
<path d="M52 50.87H64.61C69.44 50.87 69.45 43.37 64.61 43.37H52C47.18 43.37 47.17 50.87 52 50.87Z" fill="white"/>
<path d="M52 37H64.61C69.44 37 69.45 29.5 64.61 29.5H52C47.18 29.5 47.17 37 52 37Z" fill="white"/>
<path d="M54.63 75.74V5.14999C54.63 0.319994 47.13 0.309994 47.13 5.14999V75.74C47.13 80.56 54.63 80.57 54.63 75.74Z" fill="white"/>
</svg>
