<svg width="86" height="86" viewBox="0 0 86 86" fill="none" xmlns="http://www.w3.org/2000/svg">
<path d="M43 69.44C56.031 69.44 66.62 58.84 66.62 45.81C66.62 32.78 56.03 22.19 43 22.19C29.97 22.19 19.37 32.779 19.37 45.81C19.37 58.841 29.969 69.44 43 69.44ZM43 25.19C54.41 25.19 63.62 34.4 63.62 45.81C63.62 57.22 54.409 66.44 43 66.44C31.591 66.44 22.37 57.219 22.37 45.81C22.37 34.401 31.59 25.19 43 25.19Z" fill="white"/>
<path d="M43 57.89C49.555 57.89 54.88 52.455 54.88 45.81C54.88 39.174 49.555 33.74 43 33.74C42.172 33.728 41.49 34.39 41.479 35.219C41.467 36.047 42.129 36.729 42.958 36.74C42.972 36.74 42.986 36.74 43 36.74C47.904 36.74 51.88 40.766 51.88 45.81C51.88 50.865 47.904 54.89 43 54.89C38.084 54.89 34.12 50.867 34.12 45.81C34.132 44.982 33.47 44.3 32.641 44.289C31.813 44.277 31.132 44.939 31.12 45.768C31.12 45.782 31.12 45.796 31.12 45.81C31.12 52.453 36.436 57.89 43 57.89Z" fill="white"/>
<path d="M72.52 29.26C75.126 29.26 77.24 27.086 77.24 24.48C77.24 21.869 75.126 19.69 72.52 19.69C69.914 19.69 67.8 21.869 67.8 24.48C67.8 27.086 69.914 29.26 72.52 29.26ZM72.52 22.69C73.474 22.69 74.24 23.451 74.24 24.48C74.24 25.494 73.474 26.26 72.52 26.26C71.566 26.26 70.8 25.494 70.8 24.48C70.8 23.451 71.566 22.69 72.52 22.69Z" fill="white"/>
<path d="M77.09 78.65C81.714 78.65 85.49 74.794 85.49 70.12V21.51C85.49 16.836 81.714 12.98 77.09 12.98H24.56V12.92C24.56 9.88101 22.102 7.35001 19.07 7.35001H12.01C8.978 7.35001 6.51 9.87601 6.51 12.92V13.338C3.038 14.394 0.510002 17.676 0.510002 21.51V70.12C0.510002 74.791 4.276 78.65 8.9 78.65H77.09ZM9.51 12.92C9.51 11.484 10.642 10.35 12.01 10.35H19.07C20.438 10.35 21.56 11.479 21.56 12.92V12.98H9.51V12.92ZM3.51 70.12V21.51C3.51 18.765 5.482 16.502 7.998 16.06C8.14 16.061 8.281 16.042 8.418 16.003C8.575 15.988 8.737 15.98 8.9 15.98H22.816C22.976 16.006 23.14 16.006 23.3 15.98H77.09C80.046 15.98 82.49 18.444 82.49 21.51V70.12C82.49 73.186 80.046 75.65 77.09 75.65H8.9C5.944 75.65 3.51 73.189 3.51 70.12Z" fill="white"/>
<path d="M68.658 72.04C68.672 72.04 68.686 72.04 68.7 72.04H73.84C74.56 72.04 75.172 72.025 75.778 71.911C76.384 71.797 77.043 71.545 77.544 71.033C78.546 70.009 78.541 68.75 78.541 67.17V56.48C78.553 55.652 77.891 54.97 77.062 54.959C77.047 54.959 77.033 54.959 77.018 54.959C76.19 54.971 75.529 55.652 75.541 56.48V67.17C75.541 68.352 75.386 68.841 75.382 68.926C75.351 68.935 75.306 68.947 75.224 68.963C74.972 69.01 74.496 69.041 73.841 69.041H68.7C67.872 69.029 67.191 69.691 67.179 70.52C67.167 71.347 67.829 72.028 68.658 72.04Z" fill="white"/>
</svg>
