<?xml version="1.0" encoding="utf-8"?>
<!-- Generator: Adobe Illustrator 23.0.3, SVG Export Plug-In . SVG Version: 6.00 Build 0)  -->
<svg version="1.1" id="Layer_1" xmlns="http://www.w3.org/2000/svg" xmlns:xlink="http://www.w3.org/1999/xlink" x="0px" y="0px"
	 viewBox="0 0 1366 768" style="enable-background:new 0 0 1366 768;" xml:space="preserve">
<style type="text/css">
	.st0{fill:#FFFFFF;}
</style>
<path class="st0" d="M0,248.83c0-6.61,4.74-12.28,11.27-13.3c15.13-2.38,33.65-4.15,55.95-4.15c34.61,0,59.97,9.43,76.07,26.41
	c14.89,15.1,23.75,38.22,23.75,66.52c0,28.78-7.24,51.43-20.93,67.94c-18.51,23.11-48.7,34.91-82.91,34.91
	c-7.3,0-14.2-0.23-20.45-1.17c-4.09-0.62-7.73,2.5-7.73,6.63v114c0,2.81-2.27,5.08-5.08,5.08H6.76c-3.73,0-6.75-3.02-6.75-6.75
	L0,248.83z M35.02,381.33c0,5.73,4.08,10.81,9.75,11.63c5.65,0.82,12.06,1.18,19.23,1.18c42.26,0,68.02-24.06,68.02-67.93
	c0-41.99-25.36-62.28-64-62.28c-8.9,0-16.57,0.48-22.62,1.25c-5.95,0.76-10.38,5.79-10.38,11.79L35.02,381.33z"/>
<path class="st0" d="M248.49,212.66l0.57,135.21c0.03,7.42,6.05,13.41,13.47,13.41h104.54c7.35,0,13.35-5.9,13.47-13.25l2.6-157.61
	c0.09-5.67,3.99-10.57,9.49-11.95l9.98-2.5c7.32-1.83,14.4,3.7,14.4,11.25v408.4c0,7.66-7.2,13.29-14.64,11.43l-9.04-2.26
	c-5.92-1.48-10.1-6.76-10.19-12.86l-2.72-182.22c-0.05-3.67-3.04-6.61-6.71-6.61h-111.2c-7.41,0-13.42,5.99-13.45,13.4l-0.58,153.81
	c-0.03,7.7-7.26,13.35-14.74,11.51l-9.4-2.31c-6.01-1.48-10.24-6.87-10.23-13.06l0.57-349.93c0.01-6.13,4.18-11.46,10.12-12.95
	l9.07-2.27C241.29,199.45,248.46,205.03,248.49,212.66z"/>
<path class="st0" d="M708.32,386.62c0,162.97-56.75,249.38-125.97,249.38c-71.64,0-121.95-96.94-121.95-240.25
	c0-150.32,53.53-248.67,125.97-248.67C660.43,147.09,708.32,246.13,708.32,386.62z M497.84,394.35
	c0,101.15,31.39,191.77,86.53,191.77c55.54,0,86.93-89.21,86.93-196.69c0-94.12-28.17-192.47-86.53-192.47
	C526.81,196.96,497.84,290.39,497.84,394.35z"/>
<path class="st0" d="M790.18,213.91l-71.99-7.2c-3.48-0.35-6.14-3.28-6.14-6.78v-37.48c0-8.16,7.15-14.47,15.24-13.46l181.19,22.65
	c3.36,0.42,5.88,3.28,5.88,6.66v38.91c0,3.07-2.65,5.48-5.71,5.17l-71.09-7.11c-4.01-0.4-7.5,2.75-7.5,6.78v391.76
	c0,3.13-2.13,5.85-5.16,6.61l-20.08,5.02c-4.3,1.08-8.47-2.18-8.47-6.61V220.72C796.35,217.2,793.68,214.26,790.18,213.91z"/>
<path class="st0" d="M1164.7,383.34c0,132.06-49.64,210.51-112.48,210.51c-65.03,0-112.58-86.98-112.58-203.11
	c0-121.81,46.81-201.5,112.58-201.5C1119.45,189.24,1164.7,269.5,1164.7,383.34z M973.63,389.61c0,81.97,28.5,155.4,78.55,155.4
	c50.42,0,78.92-72.29,78.92-159.39c0-76.27-25.58-155.97-78.55-155.97C999.93,229.65,973.63,305.36,973.63,389.61z"/>
<path class="st0" d="M1217.8,216.63l20.18,5.05c3.01,0.75,5.13,3.46,5.13,6.57v282.42c0,3.95,3.37,7.06,7.31,6.75l103.38-8.24
	c3.94-0.31,7.3,2.79,7.31,6.74l0.02,29.74c0,3.45-2.59,6.35-6.02,6.73l-138.19,15.35c-4.01,0.45-7.52-2.69-7.52-6.73V223.19
	C1209.39,218.79,1213.53,215.56,1217.8,216.63z"/>
</svg>
